<?xml version="1.0" standalone="no"?>
<!DOCTYPE svg PUBLIC "-//W3C//DTD SVG 20010904//EN"
 "http://www.w3.org/TR/2001/REC-SVG-20010904/DTD/svg10.dtd">
<svg version="1.0" xmlns="http://www.w3.org/2000/svg"
 width="768.000000pt" height="768.000000pt" viewBox="0 0 768.000000 768.000000"
 preserveAspectRatio="xMidYMid meet">
<metadata>
Created by potrace 1.14, written by Peter Selinger 2001-2017
</metadata>
<g transform="translate(0.000000,768.000000) scale(0.100000,-0.100000)"
fill="#000000" stroke="none">
<path d="M4925 7048 c-45 -25 -136 -86 -225 -152 -305 -223 -504 -452 -646
-741 -107 -220 -152 -394 -269 -1045 -25 -140 -54 -291 -63 -335 l-17 -80 -40
-7 c-61 -11 -292 -9 -365 2 -178 28 -355 119 -461 237 -46 51 -134 171 -188
258 -133 211 -183 269 -264 306 -130 59 -285 -15 -354 -170 -34 -75 -43 -221
-19 -304 49 -168 302 -425 561 -571 97 -55 263 -111 368 -125 179 -25 407 -9
598 42 l86 23 -7 -27 c-60 -210 -392 -560 -750 -791 -161 -104 -142 -97 -223
-81 -215 41 -860 18 -1026 -36 -169 -55 -252 -154 -268 -317 -8 -87 3 -144 41
-207 l34 -56 -82 -29 c-158 -57 -354 -119 -641 -202 -16 -5 -99 -27 -183 -50
-203 -54 -202 -54 -202 -87 0 -36 18 -101 30 -108 13 -8 323 72 583 149 150
45 443 143 565 190 106 41 126 42 254 20 128 -22 325 -11 563 32 101 19 229
31 286 28 132 -7 263 -68 299 -139 21 -41 19 -234 -4 -348 -21 -108 -273 -930
-390 -1272 -47 -137 -86 -256 -86 -262 0 -7 9 -13 19 -13 24 0 71 54 202 228
56 75 114 153 129 172 14 19 56 78 93 130 36 52 118 167 181 255 179 248 267
419 356 685 65 196 85 310 84 485 -2 306 -92 460 -344 589 -47 23 -111 53
-143 66 -32 12 -56 26 -55 31 2 4 59 49 128 100 379 280 618 553 709 812 17
48 36 97 41 108 11 20 40 35 450 226 235 109 423 205 453 231 20 18 23 52 4
52 -7 0 -82 -23 -167 -50 -227 -73 -338 -104 -500 -140 -80 -17 -153 -34 -162
-36 -25 -7 -24 16 17 234 19 103 53 288 75 412 75 410 136 606 252 812 108
192 276 379 488 543 127 99 188 137 203 128 37 -21 1547 -1530 1547 -1545 0
-19 -171 -291 -219 -348 l-29 -35 -208 52 c-115 29 -414 105 -664 169 -250 64
-471 116 -492 117 -92 2 -115 -104 -31 -140 21 -8 89 -28 153 -45 63 -16 120
-34 127 -41 6 -7 135 -284 286 -617 307 -675 411 -897 434 -922 19 -21 51 -23
88 -6 41 19 35 86 -19 200 -81 171 -574 1263 -580 1285 -7 21 -1 20 161 -23
333 -88 815 -205 827 -201 13 5 337 497 358 542 6 13 8 34 5 47 -4 14 -102
118 -219 233 -117 115 -502 496 -856 847 -354 351 -646 638 -650 638 -4 0 -16
-6 -27 -12z"/>
<path d="M2960 6604 c-91 -19 -180 -66 -250 -130 -123 -115 -180 -244 -180
-411 0 -172 42 -275 159 -394 57 -58 94 -85 151 -112 323 -154 698 24 786 373
22 85 15 231 -15 315 -94 264 -375 419 -651 359z"/>
<path d="M6885 2795 l-25 -24 0 -1296 0 -1296 25 -24 c32 -33 78 -33 110 0
l25 24 0 1296 0 1296 -25 24 c-15 16 -36 25 -55 25 -19 0 -40 -9 -55 -25z"/>
</g>
</svg>
